:SAMPLES-PER-SECOND 30
:FULLY-SPECIFIED
:DEGREES
1
root  82.4039 39.9922 28.3739 158.225 -82.2616 -151.784
RightUpLeg  -6.87665 -5.65587 -1.23112
RightLeg  3.40662 -1.04389 4.17902
RightFoot  -2.22385 0.0919811 -1.37652
RightToes  1.74622e-010 0 -3.6325e-017
Spine  8.67229 2.11693 18.8909
Spine1  -19.782 3.0112 -15.7698
HEad  10.1295 3.60328 -2.52563
LeftShoulder1  5.81144 -9.59457 -38.203
LeftArm  -3.903 16.719 -15.6569
LeftForeArm  31.9671 -48.6804 -10.3589
LeftHand  -0.244104 0.0205437 5.32207
RightShoulder  -0.101575 1.935 -11.761
RightArm  -16.6659 -15.2993 18.4841
RightForeArm  5.22712 4.60335 3.52893
RightHand  -0.930541 1.83936 -15.062
LeftUpLeg  -4.4461 5.48796 4.53321
LeftLeg  2.88452 17.6489 -2.42956
LeftFoot  -9.00587 0.00397308 2.49954
LeftToes  -3.34697e-010 -1.70107e-010 -9.05613e-011
2
root  82.4805 40.0584 28.3091 162.719 -83.268 -156.851
RightUpLeg  -6.35707 -6.23119 -2.20111
RightLeg  3.46337 -1.12758 4.08101
RightFoot  -2.2681 0.0885868 -1.32375
RightToes  1.74622e-010 0 -3.6325e-017
Spine  10.6922 1.53232 19.0328
Spine1  -21.7702 2.47989 -18.7687
HEad  10.8351 2.7678 -1.10882
LeftShoulder1  6.27157 -10.9573 -37.247
LeftArm  -0.422669 17.1217 -13.6357
LeftForeArm  31.2088 -49.0278 -10.559
LeftHand  -0.244104 0.0205437 5.32207
RightShoulder  0.028583 2.0737 -9.02278
RightArm  -15.5909 -16.2392 16.6208
RightForeArm  4.54349 4.85067 3.76092
RightHand  -0.913366 1.74574 -14.9763
LeftUpLeg  -4.64904 5.18236 3.74186
LeftLeg  4.00839 17.0968 -2.28797
LeftFoot  -8.02125 -0.00827245 1.95256
LeftToes  -3.34697e-010 -1.70107e-010 -9.05613e-011
3
root  82.4728 40.0943 28.2815 165.32 -83.7867 -159.767
RightUpLeg  -5.93905 -6.46808 -2.69544
RightLeg  3.40337 -1.25395 3.99919
RightFoot  -2.31441 0.0857384 -1.28471
RightToes  1.74622e-010 0 -3.6325e-017
Spine  11.9337 1.16233 20.5053
Spine1  -23.272 2.10584 -22.7009
HEad  11.6315 1.7057 0.611801
LeftShoulder1  6.93669 -12.9052 -36.1842
LeftArm  3.82163 17.6929 -11.1243
LeftForeArm  30.1117 -49.6417 -10.9024
LeftHand  -0.244104 0.0205437 5.32207
RightShoulder  0.171208 2.23232 -6.19384
RightArm  -14.344 -17.3797 14.6006
RightForeArm  3.80959 5.11781 4.01149
RightHand  -0.889032 1.55406 -14.9717
LeftUpLeg  -4.58488 5.03177 3.33186
LeftLeg  4.43422 16.7078 -2.22072
LeftFoot  -7.47988 -0.0113271 1.66419
LeftToes  -3.34697e-010 -1.70107e-010 -9.05613e-011
4
root  82.3096 40.0475 28.3553 161.503 -83.0726 -155.545
RightUpLeg  -6.11017 -6.04911 -2.06871
RightLeg  3.3022 -1.19348 4.05935
RightFoot  -2.38506 0.0824141 -1.25742
RightToes  1.74622e-010 0 -3.6325e-017
Spine  10.7467 1.48153 23.6959
Spine1  -22.8191 2.44115 -26.3935
HEad  12.341 0.662302 2.22374
LeftShoulder1  7.709 -15.1277 -35.3004
LeftArm  7.68091 18.5044 -8.75461
LeftForeArm  28.7585 -50.5783 -11.4216
LeftHand  -0.244104 0.0205437 5.32207
RightShoulder  0.294048 2.49124 -3.99476
RightArm  -13.2896 -17.9121 12.843
RightForeArm  3.23043 5.26821 4.22818
RightHand  -0.871409 1.39879 -15.0027
LeftUpLeg  -4.09954 5.03508 3.80339
LeftLeg  3.29804 17.2073 -2.28087
LeftFoot  -8.16343 -0.00809103 2.0845
LeftToes  -3.34697e-010 -1.70107e-010 -9.05613e-011
5
root  82.1226 39.9712 28.4548 157.157 -82.0009 -150.49
RightUpLeg  -6.63299 -5.49831 -1.15923
RightLeg  3.2961 -1.07 4.20867
RightFoot  -2.48584 0.0765353 -1.19387
RightToes  1.74622e-010 0 -3.6325e-017
Spine  8.81842 2.06199 27.0536
Spine1  -21.7228 3.01856 -29.5924
HEad  13.0091 -0.384689 3.77898
LeftShoulder1  8.63057 -17.7094 -34.597
LeftArm  11.1696 19.7103 -6.49148
LeftForeArm  26.4855 -51.8777 -12.2149
LeftHand  -0.244104 0.0205437 5.32207
RightShoulder  0.411934 2.69189 -1.99468
RightArm  -12.5127 -17.9387 11.3018
RightForeArm  2.73674 5.37978 4.40927
RightHand  -0.854788 1.28453 -14.9639
LeftUpLeg  -3.52988 5.1182 4.45889
LeftLeg  1.46193 17.9048 -2.41505
LeftFoot  -9.07403 -0.000695804 2.78129
LeftToes  -3.34697e-010 -1.70107e-010 -9.05613e-011
